<svg id="svg" version="1.1" xmlns="http://www.w3.org/2000/svg" xmlns:xlink="http://www.w3.org/1999/xlink" width="400" height="334.79853479853483" viewBox="0, 0, 400,334.79853479853483"><g id="svgg"><path id="path0" d="M193.802 34.170 C 193.065 34.333,191.633 34.475,190.620 34.485 C 189.606 34.495,188.099 34.721,187.270 34.988 C 183.114 36.325,181.319 36.851,180.913 36.851 C 180.177 36.851,171.367 41.049,170.612 41.759 C 170.386 41.972,169.633 42.495,168.937 42.921 C 165.395 45.093,160.411 49.688,157.097 53.836 C 152.773 59.249,148.850 66.817,147.668 72.027 C 147.480 72.856,147.166 73.733,146.971 73.975 C 146.220 74.905,146.535 80.442,147.422 81.910 C 150.029 86.222,154.100 87.634,158.093 85.610 C 159.737 84.777,162.479 82.020,162.479 81.199 C 162.479 80.015,164.456 74.400,165.941 71.368 C 170.067 62.941,179.683 54.283,186.605 52.763 C 187.235 52.624,187.981 52.385,188.264 52.232 C 192.263 50.058,206.171 50.085,210.129 52.275 C 210.449 52.452,210.932 52.596,211.203 52.596 C 212.248 52.596,218.871 56.312,221.537 58.394 C 226.132 61.982,230.108 66.953,232.307 71.859 C 232.802 72.965,233.349 74.131,233.522 74.451 C 233.694 74.771,233.836 75.344,233.836 75.724 C 233.836 76.104,234.086 76.898,234.391 77.487 C 235.975 80.545,235.975 93.660,234.391 96.717 C 234.086 97.307,233.836 98.093,233.836 98.464 C 233.836 99.659,231.233 105.025,229.084 108.260 C 227.235 111.045,223.556 114.844,220.487 117.139 C 219.077 118.193,217.069 119.705,216.025 120.499 C 214.981 121.293,213.976 121.943,213.792 121.943 C 213.607 121.943,213.406 122.065,213.345 122.213 C 213.246 122.450,208.949 125.577,205.422 127.976 C 204.743 128.438,202.934 129.719,201.402 130.823 C 199.869 131.927,197.963 133.283,197.166 133.836 C 192.166 137.304,187.919 140.291,186.722 141.181 C 185.960 141.748,185.000 142.437,184.590 142.714 C 184.179 142.990,183.219 143.679,182.457 144.245 C 181.066 145.279,178.679 146.946,174.572 149.751 C 173.357 150.582,171.683 151.752,170.854 152.352 C 170.025 152.951,169.045 153.656,168.677 153.918 C 168.308 154.179,166.994 155.120,165.756 156.007 C 164.518 156.895,161.681 158.903,159.452 160.469 C 157.222 162.035,154.690 163.858,153.824 164.519 C 152.958 165.180,152.091 165.783,151.896 165.859 C 151.541 165.997,149.258 167.621,145.229 170.603 C 144.046 171.478,142.984 172.194,142.869 172.194 C 142.753 172.194,142.030 172.693,141.262 173.302 C 140.494 173.911,139.546 174.627,139.155 174.893 C 136.662 176.588,134.146 178.372,134.003 178.546 C 133.911 178.658,132.931 179.338,131.826 180.057 C 130.720 180.775,129.740 181.458,129.648 181.574 C 129.556 181.690,127.991 182.831,126.171 184.109 C 124.351 185.387,122.316 186.821,121.649 187.297 C 120.981 187.773,118.626 189.421,116.415 190.960 C 114.204 192.499,111.777 194.259,111.021 194.869 C 110.265 195.480,109.542 195.980,109.415 195.980 C 109.287 195.980,108.217 196.696,107.037 197.571 C 105.857 198.446,104.130 199.690,103.199 200.335 C 102.268 200.980,100.461 202.261,99.184 203.183 C 97.906 204.104,95.038 206.139,92.809 207.705 C 90.581 209.271,88.029 211.080,87.140 211.725 C 83.818 214.134,77.002 218.940,76.451 219.263 C 76.137 219.447,74.975 220.272,73.869 221.096 C 72.764 221.920,70.729 223.356,69.347 224.288 C 66.433 226.254,64.667 227.499,64.122 227.973 C 63.911 228.157,61.897 229.590,59.649 231.156 C 57.400 232.722,54.825 234.531,53.927 235.176 C 53.028 235.821,51.118 237.167,49.681 238.167 C 48.244 239.166,46.315 240.537,45.394 241.213 C 42.431 243.385,35.834 248.063,35.244 248.409 C 34.930 248.593,34.598 248.843,34.506 248.963 C 34.413 249.084,33.509 249.751,32.496 250.446 C 26.887 254.289,22.927 258.238,19.946 262.961 C 18.553 265.167,16.417 269.565,16.405 270.251 C 16.399 270.583,16.173 271.147,15.902 271.505 C 15.632 271.862,15.410 272.559,15.410 273.054 C 15.410 273.548,15.163 274.612,14.860 275.419 C 14.052 277.568,14.040 288.952,14.843 291.122 C 15.150 291.951,15.403 293.003,15.406 293.460 C 15.434 298.361,22.143 308.115,29.724 314.278 C 31.440 315.673,37.954 319.059,40.034 319.637 C 40.586 319.790,42.018 320.152,43.216 320.441 C 44.414 320.731,45.846 321.149,46.399 321.371 C 47.656 321.875,338.384 322.138,345.896 321.641 C 362.637 320.535,375.863 311.159,380.916 296.817 C 381.338 295.620,381.809 294.497,381.964 294.322 C 382.118 294.147,382.245 293.525,382.245 292.940 C 382.245 292.355,382.480 291.217,382.767 290.411 C 383.496 288.365,383.486 277.948,382.753 275.575 C 382.473 274.670,382.245 273.511,382.245 272.998 C 382.245 272.486,382.111 271.983,381.947 271.882 C 381.783 271.781,381.545 271.282,381.418 270.774 C 381.105 269.515,379.921 266.745,379.163 265.494 C 376.878 261.723,374.975 259.258,372.401 256.734 C 368.495 252.902,369.428 253.614,354.636 243.187 C 353.699 242.526,350.613 240.340,347.779 238.329 C 343.252 235.117,341.299 233.744,338.906 232.090 C 338.563 231.853,337.658 231.201,336.896 230.641 C 336.134 230.082,334.417 228.886,333.081 227.985 C 331.744 227.083,330.379 226.109,330.048 225.819 C 329.716 225.530,329.196 225.142,328.893 224.958 C 328.362 224.635,326.513 223.353,322.613 220.602 C 321.600 219.887,319.489 218.400,317.923 217.299 C 316.357 216.197,314.472 214.865,313.735 214.339 C 312.998 213.812,311.642 212.862,310.720 212.227 C 309.799 211.591,307.283 209.824,305.129 208.299 C 302.974 206.775,300.565 205.075,299.774 204.523 C 298.983 203.970,297.052 202.601,295.483 201.481 C 291.965 198.970,289.467 197.206,287.235 195.658 C 285.129 194.197,280.400 190.870,278.450 189.477 C 277.653 188.908,276.348 187.990,275.551 187.437 C 272.258 185.155,263.364 178.874,259.702 176.245 C 255.956 173.554,254.827 172.754,250.838 169.956 C 247.192 167.399,245.724 166.346,245.561 166.171 C 245.469 166.072,244.285 165.239,242.929 164.319 C 237.539 160.662,236.631 160.021,235.287 158.926 C 234.519 158.301,233.765 157.787,233.612 157.786 C 233.459 157.784,232.700 157.294,231.927 156.697 C 231.153 156.100,229.751 155.084,228.811 154.439 C 216.956 146.306,216.652 140.297,227.698 132.479 C 228.955 131.589,230.059 130.769,230.151 130.657 C 230.243 130.545,230.846 130.087,231.491 129.640 C 233.603 128.174,238.477 123.510,240.233 121.273 C 242.266 118.684,243.995 116.200,244.896 114.573 C 245.456 113.559,246.057 112.504,246.231 112.228 C 247.218 110.655,249.477 105.061,249.951 103.015 C 250.121 102.278,250.476 101.147,250.738 100.503 C 251.001 99.858,251.295 98.501,251.392 97.487 C 251.488 96.474,251.715 94.891,251.895 93.970 C 252.315 91.817,252.318 83.418,251.900 81.240 C 251.723 80.318,251.444 78.509,251.281 77.219 C 251.117 75.930,250.756 74.271,250.479 73.534 C 250.202 72.797,249.649 71.141,249.252 69.854 C 246.741 61.727,240.898 53.077,233.773 46.941 C 229.565 43.317,225.732 40.753,222.111 39.141 C 221.650 38.936,220.479 38.413,219.509 37.979 C 217.217 36.953,214.249 35.964,212.563 35.662 C 211.826 35.530,210.921 35.265,210.553 35.073 C 209.095 34.311,196.277 33.620,193.802 34.170 " stroke="none" fill="#593714" fill-rule="evenodd"></path><path id="path1" d="M189.615 32.137 C 189.615 32.308,188.786 32.551,187.772 32.678 C 186.759 32.804,185.930 33.041,185.930 33.204 C 185.930 33.367,185.411 33.501,184.777 33.501 C 184.143 33.501,183.531 33.652,183.417 33.836 C 183.303 34.020,182.765 34.171,182.220 34.171 C 181.676 34.171,180.931 34.322,180.565 34.506 C 180.199 34.690,179.600 34.992,179.234 35.176 C 178.868 35.360,178.274 35.511,177.914 35.511 C 177.554 35.511,177.166 35.662,177.052 35.846 C 176.938 36.030,176.559 36.181,176.210 36.181 C 175.861 36.181,175.198 36.558,174.737 37.018 C 174.277 37.479,173.676 37.856,173.402 37.856 C 173.128 37.856,172.811 38.007,172.697 38.191 C 172.583 38.375,172.197 38.526,171.840 38.526 C 171.482 38.526,171.189 38.649,171.189 38.798 C 171.189 38.948,170.668 39.275,170.031 39.526 C 169.393 39.776,168.795 40.181,168.701 40.426 C 168.607 40.671,168.333 40.871,168.091 40.871 C 167.850 40.871,167.435 41.173,167.169 41.541 C 166.904 41.910,166.423 42.211,166.101 42.211 C 165.570 42.211,164.433 43.086,162.290 45.142 C 161.858 45.557,161.417 45.896,161.311 45.896 C 160.971 45.896,158.794 48.205,158.794 48.565 C 158.794 48.755,158.626 48.911,158.420 48.911 C 157.908 48.911,155.779 51.278,155.779 51.848 C 155.779 52.396,154.971 53.266,154.463 53.266 C 154.265 53.266,154.104 53.567,154.104 53.934 C 154.104 54.300,153.802 54.789,153.434 55.019 C 153.065 55.249,152.764 55.627,152.764 55.859 C 152.764 56.092,152.613 56.281,152.429 56.281 C 152.245 56.281,152.094 56.479,152.094 56.721 C 152.094 56.962,151.792 57.484,151.424 57.879 C 151.055 58.275,150.754 58.737,150.754 58.906 C 150.754 59.076,150.528 59.402,150.251 59.631 C 149.975 59.861,149.749 60.332,149.749 60.678 C 149.749 61.023,149.598 61.307,149.414 61.307 C 149.229 61.307,149.079 61.608,149.079 61.977 C 149.079 62.345,148.928 62.647,148.744 62.647 C 148.559 62.647,148.409 63.023,148.409 63.484 C 148.409 63.945,148.258 64.322,148.074 64.322 C 147.889 64.322,147.739 64.623,147.739 64.992 C 147.739 65.360,147.588 65.662,147.404 65.662 C 147.219 65.662,147.069 66.028,147.069 66.475 C 147.069 66.923,146.843 67.515,146.566 67.791 C 146.290 68.068,146.064 68.597,146.064 68.968 C 146.064 69.339,145.913 69.735,145.729 69.849 C 145.544 69.963,145.394 70.415,145.394 70.854 C 145.394 71.293,145.243 71.745,145.059 71.859 C 144.874 71.973,144.724 72.652,144.724 73.367 C 144.724 74.082,144.573 74.760,144.389 74.874 C 144.204 74.988,144.054 76.203,144.054 77.574 C 144.054 79.013,144.195 80.067,144.389 80.067 C 144.573 80.067,144.724 80.595,144.724 81.240 C 144.724 81.884,144.874 82.412,145.059 82.412 C 145.243 82.412,145.394 82.714,145.394 83.082 C 145.394 83.451,145.516 83.752,145.666 83.752 C 145.816 83.752,146.447 84.430,147.069 85.260 C 147.690 86.089,148.396 86.767,148.638 86.767 C 148.881 86.767,149.079 86.918,149.079 87.102 C 149.079 87.286,149.391 87.437,149.773 87.437 C 150.154 87.437,150.693 87.663,150.969 87.940 C 151.246 88.216,151.904 88.442,152.433 88.442 C 152.962 88.442,153.487 88.593,153.601 88.777 C 153.715 88.961,154.167 89.112,154.606 89.112 C 155.045 89.112,155.498 88.961,155.611 88.777 C 155.725 88.593,156.168 88.442,156.595 88.442 C 157.022 88.442,157.560 88.216,157.789 87.940 C 158.018 87.663,158.640 87.437,159.170 87.437 C 159.700 87.437,160.134 87.286,160.134 87.102 C 160.134 86.918,160.436 86.767,160.804 86.767 C 161.182 86.767,161.474 86.544,161.474 86.254 C 161.474 85.972,161.738 85.640,162.060 85.517 C 162.817 85.227,163.792 84.061,163.815 83.417 C 163.826 83.141,164.129 82.538,164.489 82.077 C 164.864 81.597,165.147 80.712,165.152 80.003 C 165.156 79.323,165.310 78.673,165.494 78.559 C 165.678 78.446,165.829 77.832,165.829 77.195 C 165.829 75.987,166.370 74.729,167.085 74.271 C 167.316 74.124,167.504 73.718,167.504 73.370 C 167.504 73.021,167.655 72.643,167.839 72.529 C 168.023 72.415,168.174 72.058,168.174 71.735 C 168.174 71.412,168.476 70.824,168.844 70.429 C 169.213 70.033,169.514 69.515,169.515 69.277 C 169.515 69.039,169.901 68.392,170.372 67.839 C 170.843 67.286,171.522 66.494,171.879 66.078 C 172.237 65.662,172.529 65.243,172.529 65.148 C 172.529 64.875,175.497 61.978,175.787 61.967 C 175.930 61.962,176.424 61.439,176.884 60.804 C 177.345 60.169,177.948 59.646,178.224 59.640 C 178.501 59.635,179.149 59.268,179.664 58.824 C 180.180 58.381,181.575 57.534,182.763 56.943 C 183.952 56.352,184.925 55.735,184.925 55.572 C 184.925 55.410,185.368 55.276,185.910 55.276 C 186.452 55.276,186.988 55.126,187.102 54.941 C 187.216 54.757,187.755 54.606,188.299 54.606 C 189.259 54.606,189.566 54.504,191.244 53.627 C 191.794 53.340,194.105 53.211,198.829 53.205 C 205.290 53.197,206.947 53.382,208.789 54.312 C 209.109 54.474,209.675 54.606,210.046 54.606 C 210.417 54.606,210.720 54.757,210.720 54.941 C 210.720 55.126,211.173 55.276,211.725 55.276 C 212.278 55.276,212.730 55.427,212.730 55.611 C 212.730 55.796,213.107 55.946,213.568 55.946 C 214.028 55.946,214.405 56.070,214.405 56.222 C 214.405 56.374,215.091 56.840,215.929 57.259 C 216.768 57.677,217.816 58.383,218.259 58.826 C 218.702 59.269,219.229 59.631,219.429 59.631 C 219.919 59.631,226.801 66.544,226.801 67.037 C 226.801 67.251,227.064 67.669,227.387 67.967 C 227.709 68.265,228.273 69.112,228.639 69.849 C 229.005 70.586,229.570 71.433,229.895 71.731 C 230.220 72.029,230.486 72.594,230.486 72.987 C 230.486 73.380,230.637 73.702,230.821 73.702 C 231.005 73.702,231.156 74.154,231.156 74.707 C 231.156 75.260,231.307 75.712,231.491 75.712 C 231.675 75.712,231.826 76.080,231.826 76.530 C 231.826 76.979,231.977 77.441,232.161 77.554 C 232.345 77.668,232.496 78.345,232.496 79.058 C 232.496 79.771,232.722 80.580,232.998 80.857 C 233.407 81.265,233.501 82.455,233.501 87.205 C 233.501 91.992,233.410 93.126,232.998 93.467 C 232.694 93.720,232.496 94.454,232.496 95.331 C 232.496 96.127,232.345 96.871,232.161 96.985 C 231.977 97.099,231.826 97.560,231.826 98.010 C 231.826 98.459,231.675 98.827,231.491 98.827 C 231.307 98.827,231.156 99.280,231.156 99.832 C 231.156 100.385,231.005 100.838,230.821 100.838 C 230.637 100.838,230.486 101.130,230.486 101.488 C 230.486 101.845,230.335 102.231,230.151 102.345 C 229.966 102.459,229.816 102.829,229.816 103.167 C 229.816 103.504,229.590 103.868,229.313 103.974 C 229.037 104.080,228.811 104.328,228.811 104.526 C 228.811 104.724,228.509 105.209,228.141 105.605 C 227.772 106.000,227.471 106.564,227.471 106.857 C 227.471 107.150,227.169 107.607,226.801 107.873 C 226.432 108.138,226.131 108.606,226.131 108.913 C 226.131 109.219,225.830 109.548,225.462 109.644 C 225.095 109.740,224.690 110.097,224.562 110.437 C 224.291 111.162,221.428 113.894,220.935 113.899 C 220.749 113.901,220.146 114.427,219.595 115.068 C 219.044 115.709,218.329 116.237,218.007 116.241 C 217.684 116.245,217.420 116.399,217.420 116.583 C 217.420 116.767,217.228 116.918,216.992 116.918 C 216.756 116.918,216.346 117.219,216.080 117.588 C 215.815 117.956,215.426 118.258,215.216 118.258 C 215.006 118.258,214.551 118.635,214.205 119.095 C 213.859 119.556,213.339 119.933,213.049 119.933 C 212.759 119.933,212.198 120.235,211.802 120.603 C 211.407 120.972,210.948 121.273,210.783 121.273 C 210.618 121.273,210.076 121.650,209.579 122.111 C 209.082 122.571,208.555 122.948,208.408 122.948 C 208.260 122.948,207.666 123.400,207.088 123.953 C 206.509 124.506,205.820 124.958,205.555 124.958 C 205.290 124.958,204.777 125.335,204.415 125.796 C 204.053 126.256,203.569 126.633,203.341 126.633 C 203.113 126.633,202.682 126.898,202.384 127.222 C 202.086 127.545,201.390 128.035,200.838 128.310 C 200.285 128.586,199.501 129.112,199.095 129.481 C 197.752 130.700,197.352 130.988,196.999 130.988 C 196.807 130.988,196.650 131.139,196.650 131.323 C 196.650 131.508,196.461 131.659,196.231 131.659 C 196.001 131.660,195.285 132.111,194.640 132.663 C 193.995 133.215,193.361 133.667,193.231 133.668 C 193.101 133.668,192.618 134.045,192.158 134.506 C 191.697 134.966,191.152 135.343,190.946 135.343 C 190.740 135.343,190.373 135.532,190.131 135.762 C 189.170 136.674,188.253 137.353,187.983 137.353 C 187.826 137.353,187.416 137.730,187.070 138.191 C 186.724 138.652,186.250 139.028,186.018 139.028 C 185.785 139.028,185.595 139.179,185.595 139.363 C 185.595 139.548,185.293 139.698,184.925 139.698 C 184.556 139.698,184.255 139.849,184.255 140.034 C 184.255 140.218,184.050 140.369,183.799 140.369 C 183.548 140.369,182.784 140.896,182.100 141.541 C 181.416 142.186,180.675 142.714,180.452 142.714 C 180.230 142.714,179.830 143.015,179.564 143.384 C 179.299 143.752,178.866 144.054,178.603 144.054 C 178.340 144.054,177.612 144.581,176.986 145.226 C 176.360 145.871,175.662 146.399,175.435 146.399 C 175.208 146.399,174.805 146.700,174.539 147.069 C 174.274 147.437,173.826 147.739,173.544 147.739 C 173.262 147.739,172.629 148.079,172.138 148.493 C 171.646 148.907,170.830 149.548,170.324 149.916 C 169.818 150.285,169.213 150.775,168.980 151.005 C 168.748 151.235,168.394 151.424,168.195 151.424 C 167.996 151.424,167.360 151.876,166.781 152.429 C 166.203 152.982,165.608 153.434,165.460 153.434 C 165.311 153.434,164.813 153.811,164.352 154.271 C 163.891 154.732,163.282 155.109,162.997 155.109 C 162.712 155.109,162.479 155.227,162.479 155.372 C 162.479 155.516,161.989 155.921,161.390 156.272 C 160.791 156.623,159.902 157.334,159.413 157.852 C 158.925 158.370,158.264 158.794,157.945 158.794 C 157.626 158.794,157.121 159.073,156.823 159.414 C 156.525 159.756,155.791 160.287,155.193 160.596 C 154.594 160.904,154.104 161.303,154.104 161.483 C 154.104 161.662,153.878 161.809,153.601 161.809 C 153.325 161.809,153.099 161.960,153.099 162.144 C 153.099 162.328,152.906 162.479,152.670 162.479 C 152.435 162.479,152.024 162.781,151.759 163.149 C 151.493 163.518,151.135 163.819,150.963 163.819 C 150.790 163.819,150.155 164.196,149.551 164.657 C 148.948 165.117,148.329 165.494,148.177 165.494 C 148.024 165.494,147.712 165.796,147.481 166.164 C 147.251 166.533,146.838 166.834,146.563 166.834 C 146.289 166.834,146.064 166.985,146.064 167.169 C 146.064 167.353,145.875 167.504,145.645 167.505 C 145.282 167.505,144.676 167.933,142.811 169.508 C 142.589 169.696,142.283 169.849,142.132 169.849 C 141.980 169.849,141.639 170.151,141.374 170.519 C 141.108 170.888,140.656 171.189,140.369 171.189 C 140.081 171.189,139.629 171.491,139.363 171.859 C 139.098 172.228,138.724 172.529,138.532 172.529 C 138.341 172.529,137.778 172.906,137.281 173.367 C 136.784 173.827,136.181 174.204,135.941 174.204 C 135.701 174.204,135.316 174.506,135.086 174.874 C 134.856 175.243,134.443 175.544,134.168 175.544 C 133.893 175.544,133.668 175.695,133.668 175.879 C 133.668 176.064,133.485 176.214,133.260 176.214 C 133.036 176.214,132.546 176.555,132.171 176.970 C 131.797 177.386,131.039 177.950,130.486 178.224 C 129.933 178.498,129.237 178.987,128.939 179.311 C 128.641 179.635,128.219 179.899,128.002 179.899 C 127.784 179.899,127.257 180.276,126.830 180.737 C 126.403 181.198,125.841 181.575,125.580 181.575 C 125.319 181.575,124.889 181.876,124.623 182.245 C 124.358 182.613,123.958 182.915,123.735 182.915 C 123.513 182.915,122.805 183.405,122.163 184.003 C 121.037 185.052,120.199 185.643,118.750 186.408 C 117.596 187.017,116.248 188.184,116.248 188.574 C 116.248 188.778,115.975 188.945,115.641 188.945 C 115.307 188.945,114.711 189.246,114.315 189.615 C 113.919 189.983,113.476 190.285,113.331 190.285 C 113.185 190.285,112.627 190.662,112.092 191.123 C 111.557 191.583,111.014 191.960,110.885 191.960 C 110.757 191.960,110.213 192.374,109.675 192.881 C 109.138 193.388,108.249 194.028,107.699 194.305 C 106.551 194.883,106.474 194.939,104.732 196.495 C 104.018 197.133,103.184 197.655,102.879 197.655 C 102.575 197.655,102.108 197.956,101.843 198.325 C 101.577 198.693,101.180 198.995,100.960 198.995 C 100.740 198.995,100.017 199.523,99.353 200.168 C 98.689 200.812,97.955 201.340,97.723 201.340 C 97.490 201.340,97.083 201.642,96.817 202.010 C 96.552 202.379,96.135 202.680,95.891 202.680 C 95.648 202.680,95.042 203.057,94.545 203.518 C 94.048 203.978,93.485 204.355,93.293 204.355 C 93.102 204.355,92.728 204.657,92.462 205.025 C 92.197 205.394,91.787 205.695,91.551 205.695 C 91.315 205.695,91.122 205.846,91.122 206.030 C 91.122 206.214,90.934 206.365,90.704 206.366 C 90.341 206.366,89.735 206.794,87.870 208.369 C 87.648 208.557,87.342 208.710,87.190 208.710 C 87.039 208.710,86.698 209.012,86.432 209.380 C 86.167 209.749,85.714 210.050,85.427 210.050 C 85.140 210.050,84.688 210.352,84.422 210.720 C 84.157 211.089,83.778 211.390,83.580 211.390 C 83.383 211.390,82.662 211.918,81.979 212.563 C 81.295 213.208,80.532 213.735,80.283 213.735 C 80.035 213.735,79.358 214.188,78.780 214.740 C 78.201 215.293,77.571 215.745,77.379 215.745 C 77.188 215.745,76.944 215.972,76.838 216.248 C 76.732 216.524,76.360 216.750,76.011 216.750 C 75.662 216.750,75.377 216.901,75.377 217.085 C 75.377 217.270,75.184 217.420,74.948 217.420 C 74.713 217.420,74.302 217.722,74.037 218.090 C 73.771 218.459,73.341 218.760,73.080 218.760 C 72.819 218.760,72.257 219.137,71.830 219.598 C 71.403 220.059,70.918 220.436,70.752 220.436 C 70.587 220.436,69.978 220.888,69.399 221.441 C 68.821 221.993,68.131 222.446,67.867 222.446 C 67.602 222.446,67.089 222.822,66.727 223.283 C 66.364 223.744,65.903 224.121,65.701 224.121 C 65.359 224.121,64.506 224.729,63.471 225.712 C 63.228 225.942,62.884 226.131,62.706 226.131 C 62.528 226.131,62.027 226.505,61.593 226.962 C 61.159 227.420,60.616 227.797,60.385 227.800 C 60.155 227.803,59.966 227.956,59.966 228.141 C 59.966 228.325,59.740 228.476,59.464 228.476 C 59.188 228.476,58.961 228.626,58.961 228.811 C 58.961 228.995,58.764 229.146,58.522 229.146 C 58.280 229.146,57.787 229.422,57.425 229.759 C 57.063 230.096,56.318 230.659,55.770 231.009 C 55.222 231.360,54.577 231.913,54.336 232.239 C 54.095 232.564,53.682 232.831,53.419 232.831 C 52.977 232.831,52.186 233.368,51.075 234.422 C 50.833 234.652,50.494 234.841,50.322 234.841 C 50.151 234.841,49.727 235.218,49.381 235.678 C 49.035 236.139,48.562 236.516,48.329 236.516 C 48.097 236.516,47.906 236.667,47.906 236.851 C 47.906 237.035,47.605 237.186,47.236 237.186 C 46.868 237.186,46.566 237.337,46.566 237.521 C 46.566 237.705,46.353 237.856,46.092 237.856 C 45.832 237.856,45.110 238.346,44.488 238.945 C 43.867 239.544,42.949 240.247,42.449 240.509 C 41.950 240.770,41.541 241.110,41.541 241.263 C 41.541 241.416,41.334 241.541,41.081 241.541 C 40.827 241.541,40.044 242.069,39.340 242.714 C 38.636 243.358,37.863 243.886,37.623 243.886 C 37.383 243.886,37.186 244.020,37.186 244.183 C 37.186 244.346,36.685 244.717,36.073 245.008 C 35.462 245.298,34.444 245.991,33.812 246.548 C 33.180 247.105,32.508 247.563,32.319 247.566 C 32.129 247.569,31.756 247.873,31.491 248.241 C 31.225 248.610,30.831 248.911,30.616 248.911 C 30.400 248.911,29.469 249.590,28.546 250.419 C 27.624 251.248,26.781 251.926,26.673 251.926 C 26.434 251.926,24.597 253.531,23.837 254.405 C 23.532 254.755,22.748 255.584,22.094 256.247 C 21.440 256.911,20.539 257.982,20.093 258.626 C 19.646 259.271,19.013 260.091,18.686 260.448 C 18.358 260.806,18.090 261.296,18.090 261.537 C 18.090 261.779,17.943 261.977,17.762 261.977 C 17.581 261.977,17.339 262.353,17.223 262.814 C 17.107 263.275,16.878 263.652,16.714 263.652 C 16.550 263.652,16.415 263.953,16.415 264.322 C 16.415 264.690,16.265 264.992,16.080 264.992 C 15.896 264.992,15.745 265.284,15.745 265.642 C 15.745 266.000,15.595 266.385,15.410 266.499 C 15.226 266.613,15.075 266.999,15.075 267.356 C 15.075 267.714,14.925 268.007,14.740 268.007 C 14.556 268.007,14.405 268.299,14.405 268.657 C 14.405 269.015,14.255 269.400,14.070 269.514 C 13.886 269.628,13.735 270.222,13.735 270.833 C 13.735 271.444,13.509 272.132,13.233 272.362 C 12.890 272.646,12.730 273.406,12.730 274.748 C 12.730 275.837,12.581 276.717,12.395 276.717 C 12.211 276.717,12.060 277.462,12.060 278.372 C 12.060 279.283,11.910 280.121,11.725 280.235 C 11.308 280.492,11.279 286.181,11.693 286.616 C 11.984 286.923,12.201 288.220,12.608 292.102 C 12.713 293.101,13.010 294.130,13.267 294.387 C 13.525 294.645,13.735 295.372,13.735 296.004 C 13.735 296.636,13.886 297.152,14.070 297.152 C 14.255 297.152,14.405 297.445,14.405 297.803 C 14.405 298.160,14.556 298.546,14.740 298.660 C 14.925 298.774,15.075 299.310,15.075 299.852 C 15.075 300.394,15.226 300.838,15.410 300.838 C 15.595 300.838,15.745 301.139,15.745 301.508 C 15.745 301.876,15.896 302.178,16.080 302.178 C 16.265 302.178,16.415 302.411,16.415 302.695 C 16.415 302.980,16.792 303.590,17.253 304.051 C 17.714 304.511,18.090 305.107,18.090 305.375 C 18.090 305.643,18.241 305.863,18.425 305.863 C 18.610 305.863,18.760 306.089,18.760 306.365 C 18.760 306.642,18.911 306.868,19.095 306.868 C 19.280 306.868,19.430 307.079,19.430 307.336 C 19.430 307.878,24.591 313.233,25.112 313.233 C 25.304 313.233,25.461 313.390,25.461 313.583 C 25.461 314.121,27.040 315.578,27.623 315.578 C 27.908 315.578,28.141 315.729,28.141 315.913 C 28.141 316.097,28.334 316.248,28.569 316.248 C 28.805 316.248,29.215 316.549,29.481 316.918 C 29.746 317.286,30.138 317.588,30.351 317.588 C 30.564 317.588,30.926 317.814,31.156 318.090 C 31.385 318.367,31.856 318.593,32.202 318.593 C 32.548 318.593,32.831 318.744,32.831 318.928 C 32.831 319.112,33.132 319.263,33.501 319.263 C 33.869 319.263,34.171 319.414,34.171 319.598 C 34.171 319.782,34.472 319.933,34.841 319.933 C 35.209 319.933,35.511 320.084,35.511 320.268 C 35.511 320.452,35.888 320.603,36.348 320.603 C 36.809 320.603,37.186 320.754,37.186 320.938 C 37.186 321.122,37.459 321.273,37.792 321.273 C 38.125 321.273,38.691 321.494,39.048 321.765 C 39.406 322.035,40.264 322.262,40.955 322.267 C 41.646 322.273,42.211 322.429,42.211 322.613 C 42.211 322.797,42.504 322.948,42.861 322.948 C 43.219 322.948,43.605 323.099,43.719 323.283 C 43.833 323.468,45.335 323.618,47.069 323.618 C 49.070 323.618,50.298 323.758,50.449 324.002 C 50.627 324.290,62.102 324.317,96.281 324.109 C 152.749 323.765,278.286 323.768,317.529 324.114 C 339.064 324.304,346.883 324.273,347.161 323.995 C 347.379 323.777,348.700 323.618,350.298 323.618 C 351.817 323.618,353.152 323.467,353.266 323.283 C 353.380 323.099,353.832 322.948,354.271 322.948 C 354.710 322.948,355.163 322.797,355.276 322.613 C 355.390 322.429,355.991 322.278,356.612 322.278 C 357.233 322.278,357.967 322.052,358.244 321.776 C 358.520 321.499,358.974 321.273,359.253 321.273 C 359.531 321.273,359.853 321.122,359.966 320.938 C 360.080 320.754,360.466 320.603,360.824 320.603 C 361.181 320.603,361.474 320.452,361.474 320.268 C 361.474 320.084,361.926 319.933,362.479 319.933 C 363.032 319.933,363.484 319.782,363.484 319.598 C 363.484 319.414,363.710 319.263,363.987 319.263 C 364.263 319.263,364.489 319.112,364.489 318.928 C 364.489 318.744,364.778 318.593,365.131 318.593 C 365.484 318.593,365.824 318.480,365.885 318.342 C 366.010 318.060,368.724 316.248,369.020 316.248 C 369.124 316.248,369.555 315.909,369.978 315.494 C 370.613 314.871,373.367 312.514,374.186 311.893 C 374.308 311.801,374.851 311.122,375.394 310.385 C 375.936 309.648,376.795 308.646,377.302 308.157 C 377.809 307.669,378.227 307.066,378.230 306.817 C 378.233 306.568,378.610 306.010,379.068 305.576 C 379.525 305.142,379.899 304.577,379.899 304.320 C 379.899 304.063,380.050 303.853,380.235 303.853 C 380.419 303.853,380.570 303.560,380.570 303.202 C 380.570 302.845,380.720 302.459,380.905 302.345 C 381.089 302.231,381.240 301.845,381.240 301.488 C 381.240 301.130,381.390 300.838,381.575 300.838 C 381.759 300.838,381.910 300.601,381.910 300.311 C 381.910 300.022,382.136 299.559,382.412 299.282 C 382.688 299.006,382.915 298.413,382.915 297.966 C 382.915 297.519,383.065 297.152,383.250 297.152 C 383.434 297.152,383.585 296.784,383.585 296.335 C 383.585 295.885,383.735 295.424,383.920 295.310 C 384.104 295.196,384.255 294.584,384.255 293.950 C 384.255 293.316,384.405 292.797,384.590 292.797 C 384.779 292.797,384.925 291.848,384.925 290.620 C 384.925 289.391,385.071 288.442,385.260 288.442 C 385.469 288.442,385.595 286.383,385.595 282.934 C 385.595 279.624,385.461 277.344,385.260 277.219 C 385.075 277.106,384.925 276.201,384.925 275.209 C 384.925 274.218,384.774 273.313,384.590 273.199 C 384.405 273.085,384.255 272.633,384.255 272.194 C 384.255 271.755,384.104 271.303,383.920 271.189 C 383.735 271.075,383.585 270.548,383.585 270.017 C 383.585 269.486,383.434 268.958,383.250 268.844 C 383.065 268.730,382.915 268.355,382.915 268.011 C 382.915 267.666,382.688 267.158,382.412 266.882 C 382.136 266.606,381.910 266.152,381.910 265.873 C 381.910 265.594,381.759 265.273,381.575 265.159 C 381.390 265.045,381.240 264.693,381.240 264.376 C 381.240 264.059,380.938 263.582,380.570 263.317 C 380.201 263.051,379.895 262.603,379.889 262.321 C 379.875 261.658,379.097 260.637,378.606 260.637 C 378.396 260.637,378.224 260.412,378.224 260.138 C 378.224 259.617,377.827 259.072,375.879 256.925 C 375.235 256.214,374.540 255.439,374.336 255.203 C 374.133 254.967,373.252 254.171,372.379 253.434 C 371.506 252.697,370.357 251.717,369.825 251.256 C 369.293 250.796,368.635 250.230,368.363 250.000 C 368.090 249.770,367.621 249.581,367.319 249.581 C 367.018 249.581,366.693 249.280,366.596 248.911 C 366.499 248.540,366.139 248.241,365.790 248.241 C 365.443 248.241,365.159 248.123,365.159 247.978 C 365.159 247.834,364.680 247.433,364.094 247.087 C 363.509 246.741,362.582 246.030,362.034 245.507 C 361.487 244.984,360.836 244.556,360.587 244.556 C 360.338 244.556,360.134 244.405,360.134 244.221 C 360.134 244.037,359.757 243.886,359.296 243.886 C 358.836 243.886,358.459 243.715,358.459 243.506 C 358.459 243.024,356.753 241.542,356.198 241.541 C 355.967 241.541,355.779 241.390,355.779 241.206 C 355.779 241.022,355.586 240.871,355.350 240.871 C 355.115 240.871,354.704 240.570,354.439 240.201 C 354.173 239.832,353.828 239.531,353.673 239.531 C 353.517 239.531,352.895 239.154,352.291 238.693 C 351.687 238.233,351.052 237.856,350.880 237.856 C 350.708 237.856,350.349 237.554,350.084 237.186 C 349.818 236.817,349.368 236.516,349.084 236.516 C 348.800 236.516,348.295 236.153,347.962 235.709 C 347.629 235.265,346.915 234.720,346.375 234.496 C 345.835 234.272,345.394 233.981,345.394 233.848 C 345.394 233.715,344.715 233.257,343.886 232.831 C 343.057 232.404,342.379 231.942,342.379 231.804 C 342.379 231.666,341.700 231.124,340.872 230.600 C 340.043 230.077,339.364 229.535,339.364 229.397 C 339.364 229.259,339.062 229.146,338.693 229.146 C 338.325 229.146,338.023 228.995,338.023 228.811 C 338.023 228.626,337.835 228.472,337.605 228.467 C 337.374 228.462,336.532 227.859,335.733 227.127 C 334.935 226.395,334.167 225.796,334.027 225.796 C 333.887 225.796,333.335 225.419,332.799 224.959 C 332.264 224.498,331.562 224.121,331.240 224.121 C 330.917 224.121,330.653 223.959,330.653 223.762 C 330.653 223.228,329.771 222.446,329.170 222.446 C 328.880 222.446,328.643 222.295,328.643 222.111 C 328.643 221.926,328.450 221.776,328.215 221.776 C 327.979 221.776,327.569 221.474,327.303 221.106 C 327.038 220.737,326.635 220.436,326.409 220.436 C 326.183 220.436,325.591 220.059,325.094 219.598 C 324.597 219.137,324.060 218.760,323.901 218.760 C 323.742 218.760,323.139 218.308,322.560 217.755 C 321.982 217.203,321.374 216.750,321.209 216.750 C 321.044 216.750,320.502 216.374,320.006 215.913 C 319.509 215.452,318.946 215.075,318.754 215.075 C 318.563 215.075,318.189 214.774,317.923 214.405 C 317.657 214.037,317.172 213.735,316.844 213.735 C 316.516 213.735,316.248 213.585,316.248 213.400 C 316.248 213.216,316.034 213.065,315.773 213.065 C 315.512 213.065,315.248 212.952,315.187 212.814 C 314.965 212.315,311.937 210.050,311.492 210.050 C 311.241 210.050,310.818 209.749,310.553 209.380 C 310.287 209.012,309.946 208.710,309.795 208.710 C 309.643 208.710,309.337 208.557,309.115 208.369 C 307.351 206.880,306.664 206.366,306.435 206.366 C 306.289 206.365,305.846 206.064,305.450 205.695 C 305.055 205.327,304.484 205.025,304.181 205.025 C 303.878 205.025,303.429 204.648,303.183 204.188 C 302.936 203.727,302.535 203.350,302.292 203.350 C 301.884 203.350,301.075 202.792,299.987 201.759 C 299.744 201.528,299.387 201.340,299.193 201.340 C 298.998 201.340,298.296 200.812,297.632 200.168 C 296.968 199.523,296.281 198.995,296.105 198.995 C 295.928 198.995,295.461 198.693,295.065 198.325 C 294.670 197.956,294.148 197.655,293.907 197.655 C 293.665 197.655,293.467 197.504,293.467 197.320 C 293.467 197.136,293.257 196.985,293.001 196.985 C 292.744 196.985,292.447 196.759,292.341 196.482 C 292.235 196.206,291.973 195.980,291.758 195.980 C 291.544 195.980,291.125 195.715,290.827 195.391 C 290.529 195.068,289.833 194.578,289.281 194.303 C 288.729 194.027,287.975 193.532,287.606 193.201 C 285.932 191.703,284.890 190.956,284.473 190.955 C 284.224 190.955,283.598 190.503,283.082 189.950 C 282.566 189.397,281.902 188.945,281.608 188.945 C 281.313 188.945,281.072 188.798,281.072 188.618 C 281.072 188.439,280.582 188.040,279.983 187.731 C 279.384 187.423,278.651 186.891,278.353 186.550 C 278.055 186.209,277.554 185.930,277.240 185.930 C 276.616 185.930,275.712 185.168,275.712 184.642 C 275.712 184.460,275.260 184.111,274.707 183.866 C 274.154 183.621,273.702 183.307,273.702 183.168 C 273.702 183.029,273.476 182.915,273.199 182.915 C 272.923 182.915,272.697 182.764,272.697 182.580 C 272.697 182.395,272.464 182.245,272.179 182.245 C 271.894 182.245,271.284 181.868,270.824 181.407 C 270.363 180.946,269.865 180.570,269.716 180.570 C 269.568 180.570,268.973 180.117,268.394 179.564 C 267.816 179.012,267.115 178.559,266.837 178.559 C 266.559 178.559,266.332 178.441,266.332 178.297 C 266.332 178.152,265.917 177.787,265.410 177.485 C 264.904 177.183,264.188 176.661,263.819 176.324 C 263.451 175.987,262.737 175.499,262.233 175.240 C 261.730 174.980,261.020 174.490,260.656 174.151 C 260.292 173.812,259.859 173.534,259.692 173.534 C 259.526 173.534,258.831 173.007,258.147 172.362 C 257.463 171.717,256.722 171.189,256.499 171.189 C 256.276 171.189,255.877 170.888,255.611 170.519 C 255.346 170.151,254.876 169.849,254.568 169.849 C 254.260 169.849,253.921 169.623,253.815 169.347 C 253.709 169.070,253.316 168.844,252.942 168.844 C 252.568 168.844,252.261 168.628,252.261 168.364 C 252.261 168.100,251.960 167.789,251.591 167.672 C 251.223 167.555,250.921 167.347,250.921 167.209 C 250.921 167.072,250.414 166.760,249.795 166.517 C 249.175 166.274,248.401 165.718,248.073 165.282 C 247.745 164.846,247.296 164.489,247.074 164.489 C 246.852 164.489,246.397 164.188,246.064 163.819 C 245.730 163.451,245.250 163.149,244.996 163.149 C 244.742 163.149,244.006 162.621,243.361 161.977 C 242.716 161.332,242.001 160.804,241.771 160.804 C 241.542 160.804,241.137 160.503,240.871 160.134 C 240.605 159.765,240.184 159.464,239.936 159.464 C 239.687 159.464,239.293 159.276,239.060 159.045 C 238.827 158.815,238.223 158.325,237.717 157.956 C 237.211 157.588,236.394 156.947,235.903 156.533 C 235.411 156.119,234.842 155.780,234.639 155.779 C 234.436 155.779,233.797 155.327,233.219 154.774 C 232.640 154.221,232.051 153.769,231.909 153.769 C 231.767 153.769,231.245 153.392,230.748 152.931 C 230.251 152.471,229.646 152.094,229.402 152.094 C 229.158 152.094,228.741 151.792,228.476 151.424 C 228.210 151.055,227.725 150.754,227.397 150.754 C 227.069 150.754,226.801 150.603,226.801 150.419 C 226.801 150.235,226.575 150.084,226.298 150.084 C 226.022 150.084,225.796 149.951,225.796 149.789 C 225.796 149.627,225.230 148.899,224.539 148.170 C 223.848 147.442,223.095 146.521,222.864 146.124 C 222.416 145.352,222.273 140.369,222.699 140.369 C 222.838 140.369,223.168 139.881,223.431 139.286 C 223.997 138.007,225.244 136.683,225.882 136.683 C 226.131 136.683,226.930 136.157,227.656 135.513 C 229.638 133.758,229.759 133.668,230.137 133.668 C 230.329 133.668,230.486 133.550,230.486 133.406 C 230.486 133.261,230.930 132.881,231.472 132.560 C 232.015 132.239,233.064 131.378,233.804 130.645 C 234.544 129.913,235.300 129.313,235.484 129.313 C 235.882 129.313,241.206 123.981,241.206 123.582 C 241.206 123.430,241.696 122.809,242.295 122.203 C 242.894 121.597,243.609 120.649,243.884 120.098 C 244.159 119.547,244.628 118.869,244.926 118.593 C 245.225 118.317,245.896 117.299,246.418 116.332 C 246.941 115.364,247.489 114.573,247.637 114.573 C 247.785 114.573,247.906 114.361,247.906 114.101 C 247.906 113.842,248.434 112.653,249.079 111.459 C 249.724 110.264,250.251 108.969,250.251 108.580 C 250.251 108.191,250.402 107.873,250.586 107.873 C 250.771 107.873,250.921 107.571,250.921 107.203 C 250.921 106.834,251.072 106.533,251.256 106.533 C 251.441 106.533,251.591 106.005,251.591 105.360 C 251.591 104.715,251.742 104.188,251.926 104.188 C 252.111 104.188,252.261 103.593,252.261 102.867 C 252.261 102.141,252.399 101.462,252.567 101.358 C 252.735 101.254,252.975 100.568,253.099 99.832 C 253.223 99.097,253.462 98.411,253.630 98.307 C 253.799 98.203,253.936 96.854,253.936 95.310 C 253.936 93.765,254.087 92.409,254.271 92.295 C 254.468 92.173,254.606 90.232,254.606 87.605 C 254.606 84.977,254.468 83.036,254.271 82.915 C 254.087 82.801,253.936 81.444,253.936 79.899 C 253.936 78.355,253.794 77.004,253.621 76.896 C 253.447 76.789,253.204 76.025,253.080 75.197 C 252.955 74.370,252.721 73.611,252.558 73.510 C 252.395 73.410,252.261 72.817,252.261 72.194 C 252.261 71.571,252.111 70.968,251.926 70.854 C 251.742 70.740,251.591 70.204,251.591 69.662 C 251.591 69.120,251.441 68.677,251.256 68.677 C 251.072 68.677,250.921 68.309,250.921 67.859 C 250.921 67.409,250.771 66.948,250.586 66.834 C 250.402 66.720,250.251 66.259,250.251 65.809 C 250.251 65.360,250.112 64.992,249.943 64.992 C 249.773 64.992,249.540 64.560,249.424 64.032 C 249.308 63.504,248.919 62.757,248.560 62.371 C 248.200 61.985,247.906 61.437,247.906 61.153 C 247.906 60.869,247.755 60.637,247.571 60.637 C 247.387 60.637,247.236 60.425,247.236 60.166 C 247.236 59.375,245.800 56.951,245.331 56.951 C 245.089 56.951,244.891 56.678,244.891 56.345 C 244.891 56.011,244.590 55.414,244.221 55.019 C 243.853 54.623,243.551 54.193,243.551 54.062 C 243.551 53.932,243.331 53.586,243.063 53.294 C 240.682 50.706,239.510 49.402,238.388 48.094 C 237.667 47.254,236.959 46.566,236.816 46.566 C 236.672 46.566,235.540 45.586,234.300 44.389 C 233.061 43.191,231.846 42.211,231.601 42.211 C 231.356 42.211,231.156 42.060,231.156 41.876 C 231.156 41.692,230.930 41.541,230.653 41.541 C 230.377 41.541,230.151 41.390,230.151 41.206 C 230.151 41.022,229.849 40.871,229.481 40.871 C 229.109 40.871,228.811 40.648,228.811 40.369 C 228.811 40.092,228.578 39.866,228.294 39.866 C 228.010 39.866,227.454 39.564,227.059 39.196 C 226.663 38.827,226.066 38.526,225.732 38.526 C 225.399 38.526,225.126 38.375,225.126 38.191 C 225.126 38.007,224.765 37.856,224.323 37.856 C 223.882 37.856,223.166 37.482,222.732 37.024 C 222.298 36.567,221.688 36.190,221.377 36.187 C 221.065 36.184,220.717 36.030,220.603 35.846 C 220.489 35.662,220.037 35.511,219.598 35.511 C 219.159 35.511,218.707 35.360,218.593 35.176 C 218.479 34.992,218.093 34.841,217.736 34.841 C 217.378 34.841,217.085 34.690,217.085 34.506 C 217.085 34.322,216.491 34.171,215.765 34.171 C 215.039 34.171,214.352 34.020,214.238 33.836 C 214.124 33.652,213.596 33.501,213.065 33.501 C 212.534 33.501,212.016 33.365,211.913 33.199 C 211.810 33.033,210.821 32.792,209.715 32.663 C 208.609 32.535,207.620 32.294,207.517 32.128 C 207.267 31.723,189.615 31.731,189.615 32.137 M206.365 33.838 C 207.747 34.042,209.556 34.372,210.385 34.571 C 211.214 34.770,212.345 35.001,212.898 35.083 C 213.451 35.166,214.542 35.522,215.323 35.874 C 216.104 36.227,216.973 36.516,217.254 36.516 C 217.535 36.516,218.026 36.661,218.346 36.838 C 219.371 37.405,222.669 38.861,222.929 38.861 C 223.067 38.861,223.580 39.145,224.069 39.492 C 224.558 39.840,225.712 40.537,226.633 41.042 C 227.554 41.547,228.619 42.243,229.000 42.588 C 229.380 42.934,229.799 43.216,229.931 43.216 C 230.968 43.216,238.815 50.696,241.353 54.104 C 244.616 58.486,244.683 58.593,246.905 62.982 C 251.929 72.903,254.106 86.201,252.227 95.477 C 252.059 96.307,251.763 97.884,251.570 98.984 C 251.168 101.270,249.974 105.206,249.539 105.678 C 249.378 105.853,249.246 106.270,249.246 106.604 C 249.246 106.938,249.105 107.474,248.933 107.793 C 248.761 108.113,247.923 109.796,247.072 111.533 C 245.729 114.274,243.074 118.643,242.044 119.810 C 241.859 120.019,241.181 120.842,240.536 121.640 C 238.126 124.623,233.463 128.906,229.447 131.826 C 221.043 137.937,219.273 140.946,221.073 146.057 C 222.077 148.909,223.658 150.418,230.285 154.851 C 230.635 155.085,231.578 155.766,232.381 156.365 C 233.185 156.964,233.991 157.454,234.174 157.454 C 234.356 157.454,234.507 157.567,234.508 157.705 C 234.509 157.843,234.994 158.258,235.585 158.626 C 236.811 159.391,236.932 159.474,241.416 162.631 C 243.235 163.913,244.799 165.043,244.891 165.144 C 244.983 165.244,245.812 165.842,246.734 166.473 C 247.655 167.103,250.218 168.900,252.429 170.465 C 254.640 172.031,257.223 173.852,258.168 174.512 C 260.344 176.031,268.000 181.420,269.867 182.747 C 270.644 183.300,273.220 185.118,275.590 186.787 C 277.960 188.457,282.495 191.652,285.667 193.888 C 288.839 196.123,291.929 198.300,292.534 198.725 C 293.140 199.150,293.710 199.573,293.802 199.665 C 293.894 199.757,294.208 199.983,294.500 200.168 C 295.555 200.835,298.733 203.045,302.178 205.506 C 304.112 206.889,305.976 208.213,306.320 208.449 C 306.663 208.685,307.568 209.341,308.330 209.908 C 309.092 210.474,311.430 212.133,313.526 213.593 C 315.622 215.053,317.971 216.700,318.746 217.253 C 323.086 220.346,331.794 226.437,332.635 226.968 C 332.927 227.152,333.241 227.388,333.333 227.492 C 333.483 227.661,336.507 229.802,342.059 233.668 C 343.117 234.405,346.649 236.893,349.909 239.196 C 353.168 241.499,356.483 243.836,357.275 244.389 C 367.168 251.293,366.316 250.669,370.161 253.835 C 376.519 259.070,380.806 265.919,383.122 274.539 C 384.017 277.869,384.184 287.249,383.398 290.016 C 383.094 291.085,382.774 292.487,382.686 293.132 C 382.599 293.777,382.313 294.780,382.051 295.361 C 381.789 295.941,381.575 296.596,381.575 296.816 C 381.575 297.036,381.362 297.617,381.102 298.106 C 380.841 298.595,380.214 299.824,379.706 300.838 C 378.362 303.523,378.173 303.851,376.900 305.695 C 372.107 312.639,363.513 318.605,354.941 320.937 C 354.389 321.088,353.258 321.407,352.429 321.648 C 350.486 322.211,52.787 322.505,48.409 321.948 C 42.325 321.174,40.171 320.541,34.977 318.000 C 28.224 314.696,21.197 307.914,17.975 301.591 C 17.670 300.992,17.202 300.077,16.934 299.557 C 14.096 294.038,12.670 281.437,14.235 275.701 C 14.510 274.694,14.899 273.155,15.100 272.281 C 15.300 271.408,15.603 270.607,15.773 270.503 C 15.942 270.398,16.081 269.982,16.082 269.578 C 16.082 269.175,16.384 268.351,16.752 267.747 C 17.119 267.144,17.420 266.478,17.420 266.268 C 17.420 265.412,22.532 258.300,24.739 256.086 C 27.743 253.071,28.937 252.169,43.216 242.142 C 45.888 240.266,48.124 238.609,48.185 238.461 C 48.247 238.312,48.448 238.191,48.632 238.191 C 48.815 238.191,49.594 237.701,50.362 237.102 C 51.130 236.503,52.009 235.863,52.315 235.678 C 53.061 235.229,59.843 230.450,60.635 229.816 C 60.980 229.539,62.880 228.183,64.857 226.801 C 68.352 224.358,79.893 216.187,81.240 215.202 C 82.664 214.160,92.388 207.283,94.137 206.080 C 95.151 205.383,97.864 203.474,100.168 201.837 C 105.240 198.232,113.216 192.584,120.399 187.512 C 123.327 185.444,126.493 183.186,127.434 182.494 C 128.376 181.802,129.372 181.135,129.648 181.011 C 129.925 180.887,130.226 180.685,130.318 180.562 C 130.410 180.438,131.541 179.609,132.831 178.718 C 134.121 177.828,135.251 177.013,135.343 176.908 C 135.436 176.803,135.757 176.566,136.058 176.382 C 136.358 176.198,138.070 174.992,139.863 173.702 C 141.655 172.412,143.769 170.905,144.561 170.352 C 146.626 168.910,154.275 163.513,156.086 162.220 C 156.930 161.616,158.451 160.550,159.464 159.849 C 164.449 156.402,168.353 153.581,168.453 153.353 C 168.515 153.213,168.760 153.099,168.999 153.099 C 169.237 153.099,169.612 152.882,169.833 152.616 C 170.053 152.351,171.598 151.182,173.266 150.020 C 179.204 145.880,179.045 145.992,186.265 140.875 C 187.278 140.157,188.710 139.146,189.447 138.630 C 190.184 138.113,192.898 136.187,195.477 134.349 C 198.057 132.512,202.041 129.685,204.332 128.067 C 206.622 126.449,209.185 124.629,210.027 124.022 C 210.869 123.415,212.312 122.398,213.233 121.763 C 214.154 121.128,215.737 119.999,216.750 119.256 C 217.764 118.512,219.023 117.622,219.548 117.277 C 221.391 116.067,225.847 111.794,227.215 109.927 C 227.975 108.889,228.682 107.965,228.787 107.873 C 229.089 107.608,230.764 104.534,231.708 102.513 C 233.163 99.396,233.438 98.696,233.618 97.655 C 233.713 97.102,234.049 95.821,234.364 94.807 C 235.183 92.172,235.186 82.048,234.368 79.397 C 234.055 78.384,233.721 77.178,233.625 76.717 C 233.196 74.657,230.051 68.487,228.127 65.930 C 224.784 61.488,219.243 56.818,214.908 54.790 C 214.171 54.445,213.020 53.886,212.350 53.547 C 211.680 53.209,210.886 52.931,210.586 52.931 C 210.286 52.931,209.779 52.794,209.459 52.625 C 207.656 51.676,201.884 50.842,198.220 51.002 C 194.015 51.185,187.772 52.521,185.260 53.775 C 184.799 54.005,183.819 54.475,183.082 54.819 C 182.345 55.163,181.112 55.858,180.342 56.365 C 179.571 56.872,178.842 57.286,178.720 57.286 C 177.639 57.286,168.509 66.665,168.509 67.776 C 168.509 67.884,168.057 68.643,167.504 69.462 C 166.951 70.281,166.500 71.080,166.500 71.238 C 166.501 71.395,166.214 72.127,165.863 72.864 C 164.630 75.455,164.154 76.747,164.154 77.503 C 164.154 77.923,163.853 78.890,163.484 79.653 C 163.116 80.416,162.814 81.206,162.814 81.409 C 162.814 82.006,161.388 83.927,160.302 84.793 C 154.510 89.412,146.770 86.121,146.174 78.786 C 145.921 75.678,147.442 69.120,149.081 66.252 C 149.264 65.933,149.417 65.480,149.421 65.247 C 149.425 65.015,149.723 64.447,150.084 63.987 C 150.444 63.526,150.742 62.973,150.746 62.758 C 150.755 62.315,153.488 57.608,154.566 56.179 C 157.900 51.762,161.859 47.632,165.847 44.412 C 167.377 43.176,172.701 39.843,173.451 39.651 C 173.865 39.545,174.204 39.324,174.204 39.160 C 174.204 38.995,174.364 38.861,174.560 38.861 C 174.895 38.861,178.036 37.518,179.309 36.830 C 179.629 36.657,180.232 36.515,180.649 36.515 C 181.066 36.514,181.901 36.212,182.504 35.845 C 183.107 35.477,183.955 35.176,184.388 35.176 C 184.821 35.176,185.760 34.972,186.474 34.724 C 187.188 34.475,188.827 34.160,190.117 34.023 C 191.407 33.887,193.291 33.648,194.305 33.494 C 196.554 33.151,202.952 33.334,206.365 33.838 " stroke="none" fill="#636363" fill-rule="evenodd"></path><path id="path2" d="M239.196 51.759 C 239.821 52.404,240.408 52.931,240.500 52.931 C 240.592 52.931,240.156 52.404,239.531 51.759 C 238.906 51.114,238.319 50.586,238.227 50.586 C 238.135 50.586,238.571 51.114,239.196 51.759 M148.744 84.590 C 149.369 85.235,149.956 85.762,150.048 85.762 C 150.140 85.762,149.704 85.235,149.079 84.590 C 148.454 83.945,147.867 83.417,147.775 83.417 C 147.683 83.417,148.119 83.945,148.744 84.590 M252.715 87.605 C 252.714 89.263,252.771 89.984,252.841 89.206 C 252.911 88.429,252.912 87.072,252.843 86.191 C 252.774 85.310,252.716 85.946,252.715 87.605 M222.927 136.767 L 221.943 137.856 223.032 136.872 C 223.631 136.331,224.121 135.841,224.121 135.783 C 224.121 135.524,223.844 135.752,222.927 136.767 M372.850 256.365 C 374.239 257.844,374.539 258.110,374.539 257.859 C 374.539 257.805,373.823 257.089,372.948 256.267 L 371.357 254.774 372.850 256.365 M13.820 278.224 C 13.824 278.961,13.892 279.224,13.972 278.807 C 14.052 278.390,14.049 277.787,13.966 277.467 C 13.882 277.146,13.816 277.487,13.820 278.224 M383.662 278.057 C 383.662 278.702,383.731 278.966,383.816 278.643 C 383.900 278.321,383.900 277.793,383.816 277.471 C 383.731 277.148,383.662 277.412,383.662 278.057 M13.827 288.777 C 13.827 289.606,13.892 289.946,13.972 289.531 C 14.052 289.116,14.052 288.438,13.972 288.023 C 13.892 287.609,13.827 287.948,13.827 288.777 M50.335 322.183 C 50.842 322.260,51.671 322.260,52.178 322.183 C 52.684 322.106,52.270 322.043,51.256 322.043 C 50.243 322.043,49.828 322.106,50.335 322.183 M345.477 322.183 C 345.984 322.260,346.813 322.260,347.320 322.183 C 347.827 322.106,347.412 322.043,346.399 322.043 C 345.385 322.043,344.971 322.106,345.477 322.183 " stroke="none" fill="#4c4c4c" fill-rule="evenodd"></path><path id="path3" d="M198.245 33.403 C 198.662 33.483,199.265 33.480,199.585 33.396 C 199.905 33.312,199.564 33.247,198.827 33.250 C 198.090 33.254,197.828 33.323,198.245 33.403 M146.148 77.554 C 146.152 78.291,146.220 78.554,146.301 78.137 C 146.381 77.720,146.378 77.117,146.294 76.797 C 146.210 76.476,146.144 76.817,146.148 77.554 M235.276 87.102 C 235.276 88.116,235.339 88.530,235.416 88.023 C 235.493 87.517,235.493 86.688,235.416 86.181 C 235.339 85.674,235.276 86.089,235.276 87.102 M222.111 148.849 C 222.111 148.906,222.601 149.396,223.199 149.937 L 224.288 150.921 223.304 149.832 C 222.387 148.818,222.111 148.590,222.111 148.849 M383.662 286.097 C 383.662 286.742,383.731 287.006,383.816 286.683 C 383.900 286.361,383.900 285.833,383.816 285.511 C 383.731 285.188,383.662 285.452,383.662 286.097 M125.685 322.194 C 165.791 322.241,231.520 322.241,271.748 322.194 C 311.977 322.147,279.162 322.109,198.827 322.109 C 118.492 322.109,85.578 322.147,125.685 322.194 " stroke="none" fill="#444444" fill-rule="evenodd"></path><path id="path4" d="M194.305 33.712 C 194.028 33.785,192.672 33.987,191.290 34.160 C 188.780 34.474,188.781 34.474,191.792 34.256 C 195.802 33.965,202.141 33.964,205.863 34.252 L 208.878 34.486 205.360 34.016 C 202.116 33.582,195.483 33.399,194.305 33.712 M185.092 35.230 C 183.802 35.589,182.596 36.047,182.412 36.248 C 182.174 36.509,182.271 36.539,182.747 36.354 C 183.116 36.211,184.171 35.903,185.092 35.670 C 187.030 35.180,188.673 34.541,187.940 34.563 C 187.663 34.571,186.382 34.872,185.092 35.230 M210.249 34.952 C 210.819 35.217,211.949 35.544,212.761 35.679 C 213.573 35.814,214.515 36.069,214.853 36.247 C 215.191 36.425,215.551 36.487,215.653 36.385 C 215.904 36.134,214.238 35.515,212.395 35.175 C 211.566 35.022,210.511 34.800,210.050 34.683 C 209.412 34.520,209.459 34.584,210.249 34.952 M217.085 36.978 C 217.730 37.216,218.980 37.756,219.862 38.179 C 220.744 38.601,221.538 38.875,221.625 38.788 C 221.843 38.570,217.131 36.512,216.456 36.531 C 216.157 36.539,216.441 36.740,217.085 36.978 M177.722 37.844 C 176.616 38.372,175.806 38.816,175.921 38.832 C 176.248 38.877,179.899 37.216,179.899 37.023 C 179.899 36.794,180.003 36.755,177.722 37.844 M173.916 39.542 C 172.891 40.396,173.411 40.389,174.707 39.531 C 175.260 39.165,175.486 38.869,175.209 38.874 C 174.933 38.879,174.351 39.180,173.916 39.542 M222.622 39.308 C 222.986 39.555,223.956 40.120,224.779 40.565 C 232.116 44.532,238.687 50.693,243.685 58.291 C 244.715 59.858,245.558 61.018,245.559 60.870 C 245.572 58.942,236.526 48.400,231.656 44.669 C 229.525 43.035,226.317 40.871,226.027 40.871 C 225.905 40.871,225.071 40.419,224.172 39.866 C 222.567 38.878,221.330 38.433,222.622 39.308 M171.712 40.714 C 171.354 40.985,171.212 41.206,171.396 41.206 C 171.580 41.206,172.024 40.985,172.382 40.714 C 172.739 40.444,172.881 40.222,172.697 40.222 C 172.513 40.222,172.069 40.444,171.712 40.714 M168.114 43.068 C 166.700 44.063,165.426 45.065,165.284 45.296 C 165.141 45.526,165.469 45.375,166.013 44.958 C 166.557 44.542,167.831 43.660,168.844 42.998 C 170.999 41.591,171.008 41.583,170.826 41.401 C 170.748 41.323,169.528 42.074,168.114 43.068 M162.073 47.995 C 158.199 51.631,155.458 54.974,152.853 59.243 C 151.576 61.335,148.650 67.355,148.825 67.530 C 148.916 67.621,149.252 67.125,149.571 66.427 C 149.889 65.730,150.464 64.481,150.848 63.652 C 153.034 58.925,156.772 53.803,161.543 48.995 C 165.516 44.991,165.756 44.539,162.073 47.995 M191.625 51.280 C 190.427 51.610,189.824 51.889,190.285 51.900 C 190.745 51.910,191.862 51.695,192.767 51.420 C 195.052 50.727,203.100 50.740,205.841 51.441 C 208.954 52.238,212.525 53.339,212.898 53.617 C 213.423 54.008,215.745 54.926,215.745 54.743 C 215.745 54.507,211.641 52.597,211.134 52.597 C 210.902 52.596,210.449 52.452,210.129 52.275 C 207.110 50.604,196.201 50.018,191.625 51.280 M188.107 52.261 C 187.993 52.446,187.570 52.614,187.166 52.635 C 186.630 52.664,186.585 52.714,186.999 52.824 C 187.311 52.906,187.989 52.744,188.507 52.463 C 189.135 52.122,189.259 51.949,188.881 51.940 C 188.569 51.932,188.221 52.077,188.107 52.261 M183.796 53.820 C 182.899 54.270,182.232 54.706,182.315 54.788 C 182.398 54.871,183.358 54.496,184.449 53.955 C 185.540 53.413,186.206 52.978,185.930 52.986 C 185.653 52.995,184.693 53.370,183.796 53.820 M179.782 55.975 C 178.888 56.536,178.227 57.065,178.313 57.151 C 178.399 57.237,179.277 56.775,180.265 56.124 C 182.460 54.679,182.048 54.552,179.782 55.975 M218.763 56.805 C 225.437 61.222,230.614 67.698,233.207 74.874 C 233.581 75.910,233.816 76.260,233.824 75.791 C 233.830 75.374,233.694 74.771,233.522 74.451 C 233.349 74.131,232.802 72.965,232.307 71.859 C 229.562 65.736,223.785 59.326,217.716 55.671 C 215.305 54.219,216.011 54.985,218.763 56.805 M175.377 59.242 C 172.910 61.287,170.314 64.140,168.619 66.667 C 167.163 68.838,164.821 73.234,164.842 73.757 C 164.851 74.003,165.428 73.074,166.123 71.692 C 168.566 66.837,171.722 62.776,175.628 59.462 C 177.615 57.776,178.120 57.272,177.806 57.291 C 177.760 57.294,176.667 58.172,175.377 59.242 M245.649 61.474 C 245.712 61.658,246.394 63.125,247.164 64.734 C 247.935 66.343,248.867 68.605,249.236 69.759 C 249.605 70.914,250.160 72.651,250.469 73.619 C 250.778 74.587,251.090 75.320,251.162 75.247 C 251.428 74.982,249.328 68.693,247.843 65.307 C 246.933 63.230,245.242 60.276,245.649 61.474 M148.007 69.687 C 146.763 73.298,146.345 74.964,146.489 75.730 C 146.601 76.327,146.655 76.214,146.688 75.313 C 146.713 74.633,146.871 73.991,147.040 73.887 C 147.208 73.783,147.452 73.058,147.582 72.276 C 147.712 71.494,148.035 70.429,148.301 69.910 C 148.567 69.391,148.726 68.791,148.654 68.576 C 148.583 68.361,148.291 68.861,148.007 69.687 M164.235 75.282 C 163.569 77.083,162.479 80.756,162.479 81.199 C 162.479 81.994,159.763 84.762,158.166 85.594 C 157.314 86.038,156.817 86.408,157.062 86.417 C 158.457 86.465,162.814 82.407,162.814 81.058 C 162.814 80.626,164.119 76.535,164.600 75.461 C 164.785 75.047,164.856 74.627,164.758 74.529 C 164.660 74.431,164.424 74.770,164.235 75.282 M233.863 76.990 C 233.848 77.233,234.006 77.750,234.215 78.139 C 234.423 78.528,234.706 79.611,234.843 80.546 L 235.092 82.245 235.125 80.737 C 235.154 79.422,233.936 75.806,233.863 76.990 M251.462 78.392 C 251.561 79.221,251.763 80.503,251.910 81.240 L 252.177 82.580 252.187 81.407 C 252.193 80.762,251.991 79.481,251.739 78.559 L 251.281 76.884 251.462 78.392 M146.443 79.860 C 146.351 81.860,151.017 87.286,151.990 86.312 C 152.083 86.220,151.579 85.847,150.870 85.483 C 148.897 84.472,147.157 82.145,146.694 79.899 L 146.487 78.894 146.443 79.860 M252.394 87.437 C 252.394 90.109,252.446 91.202,252.510 89.866 C 252.574 88.530,252.574 86.344,252.510 85.008 C 252.446 83.673,252.394 84.765,252.394 87.437 M235.324 87.102 C 235.324 89.405,235.424 90.838,235.546 90.285 C 235.667 89.732,235.767 88.300,235.767 87.102 C 235.767 85.905,235.667 84.472,235.546 83.920 C 235.424 83.367,235.324 84.799,235.324 87.102 M153.518 86.672 C 154.024 86.749,154.853 86.749,155.360 86.672 C 155.867 86.595,155.452 86.533,154.439 86.533 C 153.425 86.533,153.011 86.595,153.518 86.672 M234.899 93.042 C 234.867 93.821,234.596 95.071,234.296 95.820 C 233.997 96.568,233.830 97.259,233.926 97.354 C 234.325 97.753,235.213 94.512,235.089 93.110 L 234.958 91.625 234.899 93.042 M251.836 94.137 C 251.277 97.491,251.250 98.450,251.772 96.482 C 252.040 95.469,252.221 94.188,252.173 93.635 C 252.101 92.788,252.048 92.867,251.836 94.137 M233.540 98.724 C 233.518 99.128,233.350 99.551,233.166 99.665 C 232.982 99.779,232.837 100.127,232.844 100.439 C 232.853 100.817,233.027 100.693,233.368 100.064 C 233.648 99.547,233.810 98.869,233.728 98.557 C 233.619 98.143,233.568 98.188,233.540 98.724 M250.661 100.639 C 250.459 101.084,250.201 102.027,250.088 102.734 C 249.923 103.776,250.018 103.647,250.587 102.055 C 251.296 100.074,251.345 99.138,250.661 100.639 M232.077 102.212 C 231.254 103.651,231.345 104.264,232.178 102.896 C 232.555 102.278,232.818 101.641,232.763 101.480 C 232.708 101.319,232.399 101.649,232.077 102.212 M230.633 105.232 C 228.075 110.178,224.014 114.270,215.808 120.171 C 214.573 121.059,213.611 121.943,213.880 121.943 C 214.016 121.943,214.981 121.293,216.025 120.499 C 217.069 119.705,219.077 118.193,220.487 117.139 C 223.581 114.825,227.238 111.040,229.128 108.194 C 230.661 105.886,231.599 104.188,231.340 104.188 C 231.248 104.188,230.930 104.658,230.633 105.232 M249.301 105.039 C 249.086 105.510,248.918 106.151,248.926 106.465 C 248.934 106.778,249.153 106.438,249.413 105.708 C 249.954 104.191,249.882 103.764,249.301 105.039 M247.580 109.416 C 247.023 110.686,246.421 111.951,246.242 112.228 C 246.062 112.504,245.456 113.559,244.896 114.573 C 243.995 116.200,242.266 118.684,240.233 121.273 C 238.477 123.510,233.603 128.174,231.491 129.640 C 230.846 130.087,230.243 130.545,230.151 130.657 C 230.059 130.769,228.955 131.589,227.698 132.479 C 220.759 137.390,218.566 141.556,220.490 146.169 C 221.778 149.258,222.934 150.407,228.811 154.439 C 229.751 155.084,231.153 156.100,231.927 156.697 C 232.700 157.294,233.450 157.784,233.592 157.786 C 233.734 157.787,234.789 158.513,235.937 159.398 C 237.084 160.283,238.476 161.271,239.028 161.594 L 240.034 162.181 239.028 161.304 C 238.476 160.821,237.205 159.871,236.204 159.192 C 235.204 158.512,234.052 157.730,233.645 157.454 C 233.238 157.178,231.645 156.061,230.104 154.973 C 228.564 153.885,226.422 152.384,225.345 151.638 C 218.436 146.852,218.632 138.977,225.775 134.338 C 235.000 128.348,243.247 119.355,247.126 111.055 C 247.556 110.134,248.139 108.945,248.420 108.414 C 248.702 107.882,248.855 107.370,248.762 107.277 C 248.668 107.183,248.136 108.146,247.580 109.416 M211.518 123.240 C 210.574 123.909,208.188 125.586,206.214 126.968 C 204.241 128.350,201.996 129.950,201.225 130.524 C 200.455 131.098,197.263 133.368,194.133 135.568 C 186.356 141.035,185.431 141.688,182.032 144.115 C 180.401 145.279,178.512 146.608,177.834 147.069 C 173.048 150.320,169.862 152.637,169.856 152.870 C 169.852 153.021,170.318 152.795,170.891 152.368 C 171.464 151.941,173.023 150.838,174.356 149.916 C 175.689 148.995,177.746 147.574,178.926 146.758 C 180.106 145.942,181.695 144.812,182.457 144.245 C 183.219 143.679,184.179 142.990,184.590 142.714 C 185.000 142.437,185.960 141.748,186.722 141.181 C 187.919 140.291,192.166 137.304,197.166 133.836 C 197.963 133.283,199.869 131.927,201.402 130.823 C 202.934 129.719,204.743 128.438,205.422 127.976 C 206.661 127.133,213.111 122.602,213.372 122.391 C 214.296 121.645,212.806 122.328,211.518 123.240 M167.504 154.306 C 165.622 155.748,165.698 155.693,160.807 159.129 C 158.578 160.695,154.957 163.258,152.761 164.824 C 150.565 166.390,147.400 168.633,145.728 169.808 C 144.055 170.983,142.757 172.014,142.842 172.100 C 142.928 172.185,143.984 171.525,145.188 170.633 C 148.488 168.191,151.496 166.037,152.133 165.662 C 152.446 165.477,153.323 164.874,154.083 164.322 C 155.528 163.270,161.634 158.923,166.076 155.784 C 168.819 153.846,169.741 153.082,169.287 153.125 C 169.136 153.139,168.333 153.670,167.504 154.306 M240.315 162.393 C 240.637 162.913,245.226 166.026,245.226 165.723 C 245.226 165.643,244.070 164.779,242.657 163.802 C 241.245 162.825,240.191 162.191,240.315 162.393 M245.565 166.058 C 245.568 166.208,246.112 166.683,246.774 167.112 C 247.437 167.542,247.883 167.737,247.765 167.547 C 247.438 167.017,245.561 165.746,245.565 166.058 M248.341 168.065 C 248.453 168.246,249.419 168.995,250.487 169.729 C 253.073 171.506,255.012 172.877,259.702 176.245 C 263.364 178.874,272.258 185.155,275.551 187.437 C 276.348 187.990,277.653 188.908,278.450 189.477 C 280.595 191.009,285.283 194.305,287.235 195.653 C 288.175 196.302,289.397 197.158,289.950 197.555 C 293.475 200.083,299.294 204.195,302.182 206.198 C 304.042 207.487,306.553 209.267,307.763 210.153 C 310.580 212.214,311.558 212.852,311.558 212.628 C 311.558 212.470,308.875 210.531,299.924 204.219 C 298.593 203.281,295.729 201.259,293.559 199.728 C 291.390 198.196,286.298 194.611,282.245 191.760 C 274.250 186.137,270.983 183.827,268.055 181.725 C 265.802 180.108,261.434 177.028,259.201 175.482 C 258.319 174.871,256.864 173.844,255.968 173.199 C 255.071 172.554,254.007 171.801,253.604 171.524 C 253.200 171.248,252.017 170.410,250.974 169.663 C 248.583 167.948,248.081 167.643,248.341 168.065 M140.201 173.709 C 138.090 175.252,137.203 175.882,130.151 180.849 C 127.755 182.535,123.459 185.575,120.603 187.604 C 117.747 189.633,113.040 192.959,110.142 194.995 C 107.245 197.031,104.772 198.863,104.647 199.065 C 104.333 199.573,104.969 199.174,107.261 197.428 C 108.306 196.632,109.271 195.980,109.404 195.980 C 109.537 195.980,110.265 195.480,111.021 194.869 C 111.777 194.259,114.204 192.499,116.415 190.960 C 118.626 189.421,120.981 187.773,121.649 187.297 C 122.316 186.821,124.351 185.387,126.171 184.109 C 127.991 182.831,129.556 181.690,129.648 181.574 C 129.740 181.458,130.720 180.775,131.826 180.057 C 132.931 179.338,133.911 178.658,134.003 178.546 C 134.095 178.434,135.075 177.716,136.181 176.952 C 137.286 176.188,138.869 175.092,139.698 174.516 C 141.139 173.516,142.704 172.169,142.369 172.217 C 142.282 172.229,141.307 172.900,140.201 173.709 M102.178 200.659 C 101.164 201.380,99.444 202.595,98.356 203.359 C 97.267 204.123,95.986 205.027,95.508 205.367 C 91.275 208.385,81.586 215.252,80.309 216.140 C 76.818 218.567,76.023 219.183,76.178 219.339 C 76.268 219.428,77.217 218.833,78.288 218.015 C 79.887 216.795,85.293 212.956,88.562 210.720 C 88.967 210.444,90.876 209.089,92.806 207.710 C 97.941 204.040,100.122 202.498,102.094 201.143 C 103.596 200.111,104.500 199.308,104.124 199.338 C 104.067 199.343,103.191 199.937,102.178 200.659 M312.023 213.005 C 312.145 213.203,312.882 213.799,313.660 214.330 C 314.439 214.861,316.121 216.031,317.400 216.930 C 318.678 217.830,319.617 218.392,319.486 218.180 C 319.355 217.968,317.789 216.768,316.007 215.514 C 312.088 212.756,311.729 212.530,312.023 213.005 M320.044 218.668 C 320.150 218.840,321.111 219.581,322.179 220.315 C 326.360 223.188,327.829 224.229,328.394 224.721 C 328.718 225.003,329.058 225.158,329.150 225.065 C 329.243 224.973,328.252 224.157,326.949 223.253 C 325.646 222.348,323.948 221.151,323.177 220.591 C 321.165 219.132,319.820 218.307,320.044 218.668 M73.702 220.808 C 72.688 221.532,71.078 222.648,70.123 223.287 C 68.708 224.233,67.059 225.751,68.237 225.023 C 70.433 223.666,75.712 219.827,75.712 219.587 C 75.712 219.367,75.745 219.347,73.702 220.808 M64.489 227.286 C 61.090 229.707,56.344 233.088,53.884 234.841 C 52.979 235.486,51.528 236.509,50.659 237.115 C 49.790 237.720,47.571 239.294,45.729 240.613 C 43.886 241.932,41.606 243.547,40.662 244.202 C 35.650 247.682,34.804 248.316,34.962 248.474 C 35.057 248.569,36.011 247.980,37.082 247.164 C 38.152 246.349,40.515 244.637,42.333 243.360 C 44.150 242.083,46.713 240.278,48.028 239.348 C 52.718 236.031,55.005 234.421,60.637 230.471 C 62.571 229.114,64.229 227.921,64.322 227.820 C 64.414 227.719,65.136 227.197,65.928 226.660 C 67.171 225.816,67.948 225.110,67.608 225.132 C 67.551 225.136,66.147 226.105,64.489 227.286 M329.651 225.362 C 329.653 225.508,330.869 226.457,332.352 227.471 C 333.836 228.484,335.780 229.841,336.671 230.486 C 338.339 231.692,338.459 231.777,341.079 233.598 C 341.930 234.189,344.945 236.318,347.779 238.329 C 350.613 240.340,353.699 242.526,354.636 243.187 C 369.475 253.647,368.517 252.915,372.416 256.767 C 375.157 259.475,378.894 264.272,378.894 265.082 C 378.894 265.251,379.196 265.772,379.564 266.240 C 380.574 267.523,380.376 266.960,378.961 264.522 C 375.260 258.142,371.867 254.905,360.469 246.881 C 351.046 240.247,346.087 236.754,344.567 235.678 C 343.786 235.126,340.776 233.015,337.877 230.988 C 334.978 228.961,331.941 226.806,331.127 226.199 C 330.314 225.592,329.650 225.215,329.651 225.362 M33.501 249.257 C 33.040 249.620,32.481 250.067,32.259 250.251 C 32.036 250.435,31.764 250.586,31.655 250.586 C 31.214 250.586,26.503 254.567,24.522 256.613 C 21.142 260.104,17.186 266.378,16.072 270.017 C 15.931 270.477,15.704 271.156,15.568 271.524 L 15.320 272.194 15.857 271.524 C 16.152 271.156,16.399 270.583,16.405 270.251 C 16.417 269.565,18.553 265.167,19.946 262.961 C 22.951 258.201,27.054 254.122,32.580 250.401 C 33.639 249.688,34.506 248.985,34.506 248.840 C 34.506 248.483,34.462 248.501,33.501 249.257 M380.235 267.819 C 380.235 268.085,380.365 268.383,380.524 268.481 C 380.683 268.579,381.005 269.346,381.240 270.184 C 381.474 271.023,381.797 271.789,381.956 271.888 C 382.114 271.986,382.267 272.623,382.295 273.303 C 382.336 274.314,382.370 274.371,382.484 273.619 C 382.567 273.076,382.184 271.595,381.554 270.017 C 380.483 267.332,380.235 266.918,380.235 267.819 M14.626 275.062 C 14.287 276.433,14.074 278.157,14.151 278.894 C 14.284 280.153,14.296 280.131,14.349 278.535 C 14.380 277.601,14.644 276.137,14.935 275.282 C 15.226 274.427,15.414 273.467,15.353 273.148 C 15.292 272.830,14.964 273.691,14.626 275.062 M382.608 275.042 C 382.618 275.318,382.756 275.846,382.915 276.214 L 383.202 276.884 383.221 276.214 C 383.231 275.846,383.093 275.318,382.915 275.042 C 382.626 274.595,382.592 274.595,382.608 275.042 M383.363 283.082 C 383.367 288.861,383.387 289.061,383.657 286.038 C 383.822 284.196,383.820 281.521,383.652 279.841 C 383.388 277.186,383.358 277.518,383.363 283.082 M13.850 283.250 C 13.851 284.724,13.910 285.285,13.981 284.497 C 14.052 283.709,14.051 282.503,13.979 281.817 C 13.907 281.131,13.849 281.776,13.850 283.250 M14.119 288.275 C 14.098 289.196,14.371 290.854,14.727 291.960 C 15.083 293.065,15.382 293.621,15.392 293.194 C 15.402 292.767,15.246 292.110,15.044 291.734 C 14.843 291.358,14.561 290.048,14.418 288.825 C 14.166 286.666,14.157 286.650,14.119 288.275 M382.658 290.659 C 382.431 291.417,382.245 292.437,382.245 292.924 C 382.245 293.412,382.096 294.073,381.913 294.393 C 381.442 295.221,380.229 298.599,380.358 298.727 C 380.416 298.786,380.730 298.192,381.053 297.407 C 381.377 296.622,381.853 295.485,382.111 294.880 C 382.369 294.275,382.580 293.323,382.580 292.764 C 382.580 292.205,382.740 291.449,382.936 291.083 C 383.132 290.717,383.242 290.161,383.182 289.848 C 383.120 289.528,382.891 289.882,382.658 290.659 M15.577 295.394 C 15.708 295.716,15.931 296.357,16.072 296.817 C 18.209 303.794,25.027 311.968,32.328 316.308 C 34.740 317.742,38.859 319.711,39.049 319.522 C 39.124 319.447,38.107 318.886,36.789 318.276 C 34.203 317.078,30.798 315.151,29.724 314.278 C 22.927 308.752,19.422 304.234,16.763 297.571 C 16.157 296.051,15.588 294.807,15.500 294.807 C 15.411 294.807,15.446 295.071,15.577 295.394 M379.289 300.693 C 376.943 305.522,370.812 312.456,366.720 314.908 C 364.160 316.442,362.734 317.612,364.687 316.576 C 368.945 314.318,378.224 305.251,378.224 303.349 C 378.224 303.274,378.683 302.434,379.244 301.483 C 379.805 300.531,380.216 299.611,380.159 299.437 C 380.101 299.263,379.710 299.828,379.289 300.693 M360.302 318.420 C 359.012 319.037,358.120 319.555,358.319 319.570 C 358.518 319.585,359.724 319.080,360.999 318.446 C 362.274 317.812,363.166 317.295,362.982 317.296 C 362.797 317.297,361.591 317.803,360.302 318.420 M41.206 320.247 C 44.684 321.419,47.704 321.946,50.586 321.883 L 53.434 321.822 50.084 321.593 C 46.623 321.356,42.402 320.573,41.242 319.953 C 40.878 319.758,40.306 319.604,39.972 319.612 C 39.637 319.620,40.193 319.905,41.206 320.247 M356.030 319.960 C 355.016 320.550,350.720 321.354,347.236 321.605 L 343.886 321.846 347.236 321.788 C 351.281 321.718,360.932 319.637,357.286 319.621 C 356.918 319.620,356.352 319.772,356.030 319.960 " stroke="none" fill="#3c3c3c" fill-rule="evenodd"></path></g></svg>