<?xml version="1.0" encoding="utf-8"?>
<svg viewBox="0 0 500 500" xmlns="http://www.w3.org/2000/svg">
  <path d="M 484.747 357.099 L 271.874 207.856 C 268.419 205.437 266.448 201.967 266.448 198.344 L 266.448 195.734 C 266.448 190.65 269.934 186.121 275.112 184.443 C 303.878 175.174 320.16 151.943 314.751 127.943 C 310.094 107.296 288.323 90.334 261.776 86.71 C 242.286 84.062 222.615 88.12 207.697 97.884 C 192.782 107.639 184.213 121.937 184.213 137.107 C 184.213 144.171 191.563 149.908 200.658 149.908 C 209.753 149.908 217.106 144.171 217.106 137.107 C 217.106 129.53 221.4 122.372 228.865 117.483 C 236.433 112.528 246.082 110.558 256.101 111.916 C 269.03 113.681 280.08 122.285 282.346 132.358 C 285.096 144.454 276.954 156.128 262.565 160.764 C 244.934 166.445 233.555 180.168 233.555 195.734 L 233.555 198.357 C 233.555 209.226 239.49 219.631 249.87 226.889 L 462.723 376.132 C 463.215 376.476 464.268 377.207 463.574 378.615 C 463.019 379.742 461.849 380.317 460.088 380.317 L 39.909 380.317 C 38.165 380.317 36.983 379.742 36.424 378.603 C 35.731 377.207 36.769 376.463 37.275 376.119 L 197.583 263.703 C 204.344 258.967 204.87 250.877 198.802 245.618 C 192.715 240.343 182.287 239.946 175.578 244.67 L 15.256 357.085 C 4.105 364.893 0.371 376.937 5.698 387.767 C 11.158 398.802 24.565 405.918 39.909 405.918 L 460.107 405.918 C 475.451 405.918 488.855 398.802 494.3 387.78 C 499.628 376.95 495.897 364.906 484.747 357.099 Z" style="stroke: rgb(186, 218, 85); paint-order: stroke; fill: rgb(89, 55, 20);"/>
  <path d="M 251.019 180.614 L 484.691 382.655 L 17.346 382.655 L 251.019 180.614 Z" style="stroke: rgb(0, 0, 0); fill: rgb(89, 55, 20); fill-rule: nonzero; stroke-miterlimit: 1; stroke-dashoffset: -50px; stroke-width: 0px;"/>
</svg>