<svg width="24" height="20" viewBox="0 0 24 20" fill="#593714" xmlns="http://www.w3.org/2000/svg">
<path d="M23.4188 16.9485L13.064 7.621C12.896 7.46979 12.8 7.25299 12.8 7.02658V6.86337C12.8 6.54576 12.9696 6.26255 13.2216 6.15775C14.6209 5.57853 15.4129 4.12649 15.1497 2.62644C14.9233 1.336 13.8641 0.275964 12.5728 0.0495571C11.6248 -0.116048 10.668 0.13756 9.94234 0.747979C9.21672 1.3576 8.7999 2.25123 8.7999 3.19926C8.7999 3.64087 9.15751 3.99928 9.59993 3.99928C10.0423 3.99928 10.4 3.64087 10.4 3.19926C10.4 2.72564 10.6088 2.27843 10.972 1.97282C11.34 1.66321 11.8096 1.54 12.2968 1.62481C12.9256 1.73521 13.4632 2.27283 13.5736 2.90245C13.7073 3.65847 13.3112 4.38809 12.6112 4.6777C11.7536 5.03291 11.2 5.89054 11.2 6.86337V7.02738C11.2 7.7066 11.4888 8.35702 11.9936 8.81063L22.3475 18.1381C22.3715 18.1597 22.4227 18.2053 22.3891 18.2933C22.3619 18.3637 22.3051 18.3997 22.2195 18.3997H1.78049C1.69568 18.3997 1.63808 18.3637 1.61088 18.2925C1.57728 18.2053 1.62768 18.1589 1.65248 18.1373L9.45032 11.1115C9.77913 10.8155 9.80473 10.3099 9.50952 9.98107C9.21352 9.65146 8.7063 9.62666 8.37989 9.92187L0.581249 16.9477C0.0388319 17.4357 -0.142774 18.1885 0.116434 18.8654C0.382042 19.555 1.03406 19.9998 1.78049 19.9998H22.2203C22.9667 19.9998 23.6188 19.555 23.8836 18.8662C24.1428 18.1893 23.9612 17.4365 23.4188 16.9485Z" fill="#593714"/>
</svg>
